# xmcd CD database file
#
# Track frame offsets:
#	150
#	30852
#	47900
#	68237
#	92057
#	116767
#
# Disc length: 1869 seconds
#
# Revision: 1
# Processed by: cddbd v1.5.1PL0 Copyright (c) Steve Scherf et al.
# Submitted via: CDex 1.60beta1
#
DISCID=48074b06
DTITLE=Various Artist - 東京麻布ニューディスコ　VOL.1
DYEAR=2004
DGENRE=Disco
TTITLE0=WON'T BE LONG - LINA WORLD
TTITLE1=Knight Ryder - ATTACK HAUS
TTITLE2=恋は一人で？〜I'm A Bachelor〜 - ユキ
TTITLE3=Love Or Dead - TAMAMIZU
TTITLE4=BANG BANG! DANCE DANCE! - MICHAEL FORTUNATI
TTITLE5=wrap around - 浜崎貴司 feat. MCU
EXTD=YEAR: 2004
EXTT0=
EXTT1=
EXTT2=
EXTT3=
EXTT4=
EXTT5=
PLAYORDER=
